Coordinates
version=1
nRows=11
nColumns=46
inDegrees=yes

Units are S.I. units (second, meters, Newtons, ...)
Angles are in degrees.

endheader
time	pelvis_tilt	pelvis_list	pelvis_rotation	pelvis_tx	pelvis_ty	pelvis_tz	bb_angle	bb_tx	bb_ty	bb_tz	hip_flexion_r	hip_adduction_r	hip_rotation_r	knee_angle_r	knee_angle_r_beta	ankle_angle_r	subtalar_angle_r	mtp_angle_r	crank_angle_r	hip_flexion_l	hip_adduction_l	hip_rotation_l	knee_angle_l	knee_angle_l_beta	ankle_angle_l	subtalar_angle_l	mtp_angle_l	crank_angle_l	lumbar_extension	lumbar_bending	lumbar_rotation	arm_flex_r	arm_add_r	arm_rot_r	elbow_flex_r	pro_sup_r	wrist_flex_r	wrist_dev_r	arm_flex_l	arm_add_l	arm_rot_l	elbow_flex_l	pro_sup_l	wrist_flex_l	wrist_dev_l
      7.50500000	    -10.95949059	      3.26259012	      1.22702202	      0.09399066	      1.14852066	     -0.23203491	      0.00000000	      0.50000000	      0.00000000	      0.25000000	     36.27841139	    -10.10388559	    -10.81022061	     28.97001863	      0.50562221	      9.63387569	     11.69197701	      0.00000000	      0.00000000	     84.50899603	    -17.18151433	     -4.17645249	    113.39382298	      1.97909556	     19.83037354	     13.26763539	      0.00000000	      0.00000000	    -56.52543146	     -4.67721513	     -1.57080857	     89.52297193	    -16.95302042	     39.52078908	     36.49722893	     30.71000700	      0.00000000	      0.00000000	     89.71927840	     -1.84745003	     31.14463149	     35.25319418	     24.07641092	      0.00000000	      0.00000000
      7.51000000	    -10.82269959	      3.11747484	      1.17023293	      0.09415031	      1.14919103	     -0.23207728	      0.00000000	      0.50000000	      0.00000000	      0.25000000	     36.13839492	     -9.94982520	    -10.81171158	     28.87621669	      0.50398506	      9.47774776	     11.84619139	      0.00000000	      0.00000000	     84.05798995	    -17.41784794	     -4.11147340	    113.31379013	      1.97769873	     20.55932913	     14.12872279	      0.00000000	      0.00000000	    -56.81188954	     -4.57294196	     -1.36757848	     89.48672365	    -16.97786482	     38.19363691	     37.25141728	     31.46565926	      0.00000000	      0.00000000	     89.71353745	     -1.74675271	     30.22006530	     35.65244226	     25.20055874	      0.00000000	      0.00000000
      7.51500000	    -10.88986020	      3.08296460	      1.28341793	      0.09420450	      1.14955241	     -0.23256563	      0.00000000	      0.50000000	      0.00000000	      0.25000000	     36.25869827	    -10.02650327	    -10.88959869	     28.90943026	      0.50456474	      9.30409869	     11.83292505	      0.00000000	      0.00000000	     83.81579753	    -17.30782647	     -4.20315437	    113.18236392	      1.97540491	     21.05116721	     13.99548308	      0.00000000	      0.00000000	    -56.68588223	     -4.45940183	     -1.31350369	     89.48316345	    -16.39877301	     36.74181112	     35.99148013	     33.35574797	      0.00000000	      0.00000000	     89.72658083	     -1.04079908	     29.15849530	     33.98790853	     28.60995354	      0.00000000	      0.00000000
      7.52000000	    -11.14069313	      3.04039595	      1.26691452	      0.09427094	      1.14946244	     -0.23254423	      0.00000000	      0.50000000	      0.00000000	      0.25000000	     36.63740757	     -9.97161227	    -10.71218202	     29.00118702	      0.50616620	      9.16052981	     11.72843515	      0.00000000	      0.00000000	     83.77836407	    -17.42968332	     -4.23499768	    113.05254685	      1.97313917	     21.70920338	     14.62162089	      0.00000000	      0.00000000	    -56.41094421	     -4.43470477	     -1.46789094	     89.52812276	    -16.84136808	     39.50249784	     36.28618844	     32.51343217	      0.00000000	      0.00000000	     89.71828395	     -2.00553302	     30.96173837	     34.83109637	     26.92882562	      0.00000000	      0.00000000
      7.52500000	    -11.23663920	      2.94260222	      1.22763395	      0.09434617	      1.14958068	     -0.23269102	      0.00000000	      0.50000000	      0.00000000	      0.25000000	     36.80421821	     -9.87091710	    -10.62088168	     29.02372863	      0.50655963	      8.96572324	     11.75495091	      0.00000000	      0.00000000	     83.61488882	    -17.57102869	     -4.23840220	    112.96204819	      1.97155967	     22.31154701	     15.07894678	      0.00000000	      0.00000000	    -56.28239180	     -4.37537682	     -1.44795326	     89.52249883	    -16.35497872	     38.74352006	     35.63812291	     33.51299105	      0.00000000	      0.00000000	     89.71767052	     -1.79987725	     30.08532522	     34.30132360	     28.58432104	      0.00000000	      0.00000000
      7.53000000	    -11.26054780	      2.88916997	      1.24508259	      0.09442666	      1.14979463	     -0.23289118	      0.00000000	      0.50000000	      0.00000000	      0.25000000	     36.90945461	     -9.86757407	    -10.62636267	     29.09125127	      0.50773812	      8.75786621	     11.72991739	      0.00000000	      0.00000000	     83.38005275	    -17.65474479	     -4.27457499	    112.88357731	      1.97019010	     22.87745372	     15.48836213	      0.00000000	      0.00000000	    -56.23667134	     -4.32172112	     -1.40833714	     89.52103995	    -16.50847576	     39.05989582	     35.62243341	     33.26672825	      0.00000000	      0.00000000	     89.71949587	     -1.86492725	     30.36594611	     34.21102633	     28.01864751	      0.00000000	      0.00000000
      7.53500000	    -11.13987827	      2.71952191	      1.16128735	      0.09458579	      1.15028715	     -0.23291771	      0.00000000	      0.50000000	      0.00000000	      0.25000000	     36.75896151	     -9.65297676	    -10.55416732	     28.98587905	      0.50589903	      8.65710274	     11.85332917	      0.00000000	      0.00000000	     83.01047751	    -17.89005133	     -4.19141018	    112.79836390	      1.96870284	     23.53011617	     16.21984779	      0.00000000	      0.00000000	    -56.48844876	     -4.20488189	     -1.18669114	     89.49232558	    -16.39325552	     37.72948177	     36.50425078	     33.92605049	      0.00000000	      0.00000000	     89.71415025	     -1.76019146	     29.44680610	     34.76526814	     28.90263079	      0.00000000	      0.00000000
      7.54000000	    -11.35799288	      2.68906850	      1.25387852	      0.09456924	      1.15005070	     -0.23331055	      0.00000000	      0.50000000	      0.00000000	      0.25000000	     37.08766903	     -9.70094516	    -10.53520264	     29.10140106	      0.50791527	      8.49808811	     11.69709460	      0.00000000	      0.00000000	     83.04959952	    -17.85101794	     -4.27059779	    112.70814463	      1.96712822	     23.87871278	     16.19275698	      0.00000000	      0.00000000	    -56.11844429	     -4.10857636	     -1.21821568	     89.51991389	    -16.13135691	     38.34721085	     35.46019380	     33.92566746	      0.00000000	      0.00000000	     89.72260446	     -1.56455627	     29.69937948	     33.88666216	     28.85042034	      0.00000000	      0.00000000
      7.54500000	    -11.28541316	      2.57571761	      1.22649316	      0.09468881	      1.15029133	     -0.23341761	      0.00000000	      0.50000000	      0.00000000	      0.25000000	     37.05092709	     -9.59533857	    -10.51585261	     29.11564094	      0.50816380	      8.41975842	     11.75370241	      0.00000000	      0.00000000	     82.78530748	    -18.02158238	     -4.24420467	    112.65933003	      1.96627624	     24.38418609	     16.73788806	      0.00000000	      0.00000000	    -56.23936510	     -4.03359077	     -1.12817219	     89.50135527	    -16.10035721	     37.73860713	     35.90246338	     34.23077356	      0.00000000	      0.00000000	     89.71968618	     -1.60348411	     29.29731598	     34.23099136	     29.25652266	      0.00000000	      0.00000000
      7.55000000	    -11.48138093	      2.56288881	      1.27197688	      0.09471490	      1.14993807	     -0.23367067	      0.00000000	      0.50000000	      0.00000000	      0.25000000	     37.39175822	     -9.63232391	    -10.47446218	     29.28562189	      0.51113053	      8.35200858	     11.61682680	      0.00000000	      0.00000000	     82.83769557	    -18.02476250	     -4.31898545	    112.60148350	      1.96526663	     24.61549539	     16.72206300	      0.00000000	      0.00000000	    -55.92096575	     -3.99542763	     -1.18323432	     89.52958483	    -16.22343030	     39.64857554	     36.41976105	     28.17054054	      0.00000000	      0.00000000	     89.72187730	     -1.86893286	     31.13955985	     35.49553675	     20.10532577	      0.00000000	      0.00000000
      7.55500000	    -11.51822443	      2.49625124	      1.29669250	      0.09478096	      1.14987347	     -0.23387653	      0.00000000	      0.50000000	      0.00000000	      0.25000000	     37.50187060	     -9.61903041	    -10.51751162	     29.35595140	      0.51235801	      8.30132262	     11.64291644	      0.00000000	      0.00000000	     82.75141057	    -18.13109874	     -4.34893983	    112.56643274	      1.96465488	     24.78220837	     16.95004802	      0.00000000	      0.00000000	    -55.82969034	     -3.93474281	     -1.13845104	     89.52720377	    -16.07974953	     39.35080450	     36.19205944	     28.63941108	      0.00000000	      0.00000000	     89.72534545	     -1.69348805	     30.81576153	     35.11955009	     21.09226976	      0.00000000	      0.00000000
